<?xml version="1.0" encoding="iso-8859-1"?>
<!-- Generator: Adobe Illustrator 19.0.0, SVG Export Plug-In . SVG Version: 6.00 Build 0)  -->
<svg version="1.1" id="Capa_1" xmlns="http://www.w3.org/2000/svg" xmlns:xlink="http://www.w3.org/1999/xlink" x="0px" y="0px"
	 viewBox="0 0 496 496" style="enable-background:new 0 0 496 496;" xml:space="preserve">
<g>
	<path style="fill:#F0BC5E;" d="M248,0c-66.168,0-120,53.832-120,120v64h8c0-17.672,14.328-32,32-32h36.208
		c27.944-8.744,53.904-23.216,76-42.848L304,88c13.976,18.632,22.128,40.88,23.68,64H328c17.672,0,32,14.328,32,32h8v-64
		C368,53.832,314.168,0,248,0z"/>
	<rect x="152" y="288" style="fill:#F0BC5E;" width="192" height="128"/>
</g>
<circle cx="288" cy="160" r="8"/>
<path d="M248,248c22.056,0,40-17.944,40-40h-16c0,13.232-10.768,24-24,24s-24-10.768-24-24h-16C208,230.056,225.944,248,248,248z"/>
<path d="M393.712,317.48L376,311.576V280c0-13.232-10.768-24-24-24h-36.08c7.896-9.528,13.536-20.584,16.8-32.48
	C352.536,221.152,368,204.44,368,184c0-19.672-14.304-35.976-33.04-39.296c-2.712-22.176-11.128-43.592-24.56-61.504l-5.208-6.952
	l-30.296,26.92c-28.04,24.928-62.096,41.128-98.888,47.424V120h-16v24.808c-18.232,3.72-32,19.872-32,39.192
	c0,20.44,15.464,37.152,35.272,39.52c3.272,11.896,8.904,22.952,16.8,32.48H144c-13.232,0-24,10.768-24,24v31.576l-17.704,5.904
	C79.384,325.104,64,346.456,64,370.592V496h368V370.592C432,346.456,416.608,325.104,393.712,317.48z M336,200v-38.528
	c9.288,3.312,16,12.112,16,22.528c0,10.552-6.896,19.44-16.384,22.648C335.784,204.44,336,202.24,336,200z M144,184
	c0-10.416,6.712-19.216,16-22.528V200c0,2.24,0.216,4.44,0.384,6.648C150.896,203.44,144,194.552,144,184z M176,200v-33.208
	c8.24-1.304,16.32-3.184,24.28-5.392c0.688,3.72,3.8,6.6,7.72,6.6c4.416,0,8-3.584,8-8c0-1.2-0.304-2.312-0.776-3.336
	c25.704-9.184,49.544-23.096,70.288-41.536l17.04-15.144C313.848,117.84,320,138.84,320,160v40c0,22.032-9.816,42.256-26.904,56
	h-90.2C185.824,242.248,176,222.024,176,200z M136,280c0-4.416,3.592-8,8-8h208c4.416,0,8,3.584,8,8v136H136V280z M360,432
	c0,8.824-7.176,16-16,16H152c-8.824,0-16-7.176-16-16H360z M80,480V370.592c0-17.24,10.992-32.496,27.352-37.944L120,328.432V432
	c0,17.648,14.352,32,32,32h40c10.416,0,19.216,6.712,22.528,16H80z M264.808,480h-33.616c-1.216-5.944-3.856-11.328-7.392-16h48.408
	C268.664,468.672,266.024,474.056,264.808,480z M416,480H281.472c3.312-9.288,12.112-16,22.528-16h40c17.648,0,32-14.352,32-32
	V328.432l12.648,4.216c16.36,5.456,27.352,20.704,27.352,37.944V480z"/>
<polygon points="209.6,323.2 182,360 209.6,396.8 222.4,387.2 202,360 222.4,332.8 "/>
<polygon points="273.6,332.8 294,360 273.6,387.2 286.4,396.8 314,360 286.4,323.2 "/>
<rect x="202.24" y="352.006" transform="matrix(-0.2871 0.9579 -0.9579 -0.2871 658.9029 229.6356)" width="83.52" height="16"/>
<g>
</g>
<g>
</g>
<g>
</g>
<g>
</g>
<g>
</g>
<g>
</g>
<g>
</g>
<g>
</g>
<g>
</g>
<g>
</g>
<g>
</g>
<g>
</g>
<g>
</g>
<g>
</g>
<g>
</g>
</svg>
